<?xml version="1.0" encoding="UTF-8"?>
<svg id="Layer_1" data-name="Layer 1" xmlns="http://www.w3.org/2000/svg" viewBox="0 0 148.27 40">
  <defs>
    <style>
      .cls-1 {
        fill: #ed1c24;
        stroke-width: 0px;
      }
    </style>
  </defs>
  <g>
    <path class="cls-1" d="m20,0c-3.47,0-6.72.89-9.57,2.44l3.78,4.43,2.68,3.06c1.08-.37,2.24-.57,3.44-.57,5.88,0,10.65,4.77,10.65,10.65,0,4.15-2.37,7.74-5.83,9.49-.21.12-4.11,2.32-10.79,2.32l-10.52-.03c3.64,4.98,9.52,8.21,16.15,8.21,11.05,0,20-8.95,20-20S31.05,0,20,0Z"/>
    <path class="cls-1" d="m4.21,7.74l8.04,5.35c.83-.98,1.84-1.8,2.97-2.42l-6.97-6.84c-1.53,1.11-2.89,2.43-4.04,3.92Z"/>
    <path class="cls-1" d="m11.59,18.76l9.85,3.8v-2.33l-8.39-4.77c-.66.87-1.18,1.95-1.46,3.3Z"/>
    <path class="cls-1" d="m14.11,14.33l7.33,4.88v-2.43l-4.24-4.16c-1.07.36-2.15.9-3.09,1.71Z"/>
    <path class="cls-1" d="m21.44,26.23v-2.68l-10.07-3.17c-.1,1.55.07,3.37.59,5.53,0,0-2.3-2.39-2.31-6.07L.25,16.87h0c-.16,1.02-.25,2.06-.25,3.13,0,2.17.35,4.27.99,6.23h20.45Z"/>
    <path class="cls-1" d="m.78,14.48l8.94,3.6c.22-1.32.7-2.55,1.38-3.64L2.92,9.59c-.92,1.51-1.65,3.15-2.14,4.89Z"/>
    <path class="cls-1" d="m9.53,27.45H1.44c.43,1.06.94,2.08,1.54,3.05h14.44l1.85-1.95h-8.69l-1.04-1.1Z"/>
  </g>
  <g>
    <path class="cls-1" d="m144.27,24.11c-1.33,2.05-3.63,3.4-6.26,3.4-4.12,0-7.46-3.34-7.46-7.46s3.34-7.46,7.46-7.46c2.64,0,4.95,1.37,6.27,3.43l3.98-5.58c-2.55-2.73-6.19-4.44-10.22-4.44-7.73,0-13.99,6.27-13.99,13.99s6.27,13.99,13.99,13.99c4,0,7.6-1.68,10.15-4.37l-3.93-5.52Z"/>
    <path class="cls-1" d="m95.03,24.11c-1.33,2.05-3.63,3.4-6.26,3.4-4.12,0-7.46-3.34-7.46-7.46s3.34-7.46,7.46-7.46c2.64,0,4.95,1.37,6.27,3.43l3.98-5.58c-2.55-2.73-6.19-4.44-10.22-4.44-7.73,0-13.99,6.27-13.99,13.99s6.27,13.99,13.99,13.99c4,0,7.6-1.68,10.15-4.37l-3.93-5.52Z"/>
    <path class="cls-1" d="m101.69,6.42h10.51c5.7,0,9.19,2.64,9.19,7.37,0,2.48-1.01,4.27-2.91,5.55,2.6,1.16,3.76,3.37,3.76,6.01,0,5.7-4.42,8.22-9.85,8.22h-10.71V6.42Zm10.3,11.01c1.83,0,2.81-1.26,2.81-2.92s-.97-2.75-2.92-2.75h-3.69v5.67h3.8Zm.44,10.84c2.06,0,3.26-1.72,3.26-3.26s-1.09-3.21-3.09-3.21h-4.42v6.47h4.25Z"/>
    <path class="cls-1" d="m58.62,6.01c-7.73,0-13.99,6.27-13.99,13.99s6.27,13.99,13.99,13.99,13.99-6.27,13.99-13.99-6.27-13.99-13.99-13.99Zm-.04,21.51c-4.12,0-7.46-3.34-7.46-7.46s3.34-7.46,7.46-7.46,7.46,3.34,7.46,7.46-3.34,7.46-7.46,7.46Z"/>
  </g>
</svg>